<?xml version="1.0" ?><svg height="301px" version="1.1" viewBox="0 0 480 301" width="480px" xmlns="http://www.w3.org/2000/svg" xmlns:sketch="http://www.bohemiancoding.com/sketch/ns" xmlns:xlink="http://www.w3.org/1999/xlink"><title/><desc/><defs/><g fill="none" fill-rule="evenodd" id="round-rect" stroke="none" stroke-width="1"><g id="dinner_club"><path d="M444,3.03581628e-06 C420,5.30180998e-06 165.902344,-4.81179503e-06 24,3.03581628e-06 C12,3.6994511e-06 -6.11066753e-13,12.0056015 -1.42108547e-14,24.0112 C-1.42108547e-14,96.1913435 2.8991193e-06,240.111972 -1.42108547e-14,264.123169 C-1.38851962e-06,288.134366 12,300.139965 36,300.139965 C169.869629,300.139965 420,300.139967 444,300.139965 C468,300.139965 480,288.134366 480,264.123169 C479.999998,240.111972 479.999994,115.769809 480,36.0167984 C480,12.0056015 468,3.03581628e-06 444,3.03581628e-06 Z" fill="#F4F4F4" id="Rectangle-2"/><g id="logo" transform="translate(100.000000, 53.000000)"><path d="M154.420108,133.332572 C190.797177,133.50691 224,103.612902 224,67.2456502 C224,27.4760374 190.797177,-0.0132226657 154.420108,4.77155547e-06 L123.113382,4.77155547e-06 C86.30058,-0.0132226657 56,27.4842384 56,67.2456502 C56,103.620838 86.30058,133.507174 123.113382,133.332572 L154.420108,133.332572 L154.420108,133.332572 Z" fill="#4186CD" id="Shape"/><path d="M122.661481,5.33333333 C88.7891339,5.3439674 61.3413108,32.793163 61.3333333,66.6709203 C61.3413108,100.542829 88.788868,127.989366 122.661481,128 C156.541806,127.989366 183.995214,100.542829 184,66.6709203 C183.994948,32.793163 156.541806,5.3439674 122.661481,5.33333333 L122.661481,5.33333333 Z M85.3333333,65.3375545 L85.3333333,65.3375545 C85.3640206,48.9092814 95.3092524,34.9002675 109.333333,29.3333333 L109.333333,101.333333 C95.3092524,95.7695651 85.3637649,81.768202 85.3333333,65.3375545 L85.3333333,65.3375545 Z M136,101.333333 L136,101.333333 L136,29.3333333 C150.020232,34.8854088 159.974444,48.8987944 160,65.3308276 C159.974444,81.7678723 150.020232,95.7707076 136,101.333333 L136,101.333333 Z" fill="#FFFFFF" id="Shape"/><g fill="#211E1F" id="text" transform="translate(0.000000, 146.000000)"><path d="M5.67394601,9.45112304 C5.67394601,3.95322282 2.77755874,4.31527573 0.000232997126,4.25554853 L0.000232997126,2.66666667 C2.40709331,2.78427621 4.87453287,2.78427621 7.28628612,2.78427621 C9.87954413,2.78427621 13.4001307,2.66666667 17.9713013,2.66666667 C33.9595641,2.66666667 42.6666667,13.2376891 42.6666667,24.0621486 C42.6666667,30.1155809 39.0880638,45.3333333 17.2280405,45.3333333 C14.0802493,45.3333333 11.1747751,45.2131871 8.27396093,45.2131871 C5.49663519,45.2131871 2.77755874,45.2733755 0,45.3333333 L0,43.7467575 C3.70255733,43.3775558 5.49663519,43.2555647 5.67371301,39.0977215 L5.67371301,9.45112304 L5.67394601,9.45112304 L5.67394601,9.45112304 Z M10.6666667,37.6034278 L10.6666667,37.6034278 C10.6666667,42.1379037 14.045611,42.6666667 17.0516903,42.6666667 C30.3127151,42.6666667 34.6666667,33.0667301 34.6666667,24.2910418 C34.6666667,13.2825518 27.299688,5.33333333 15.456245,5.33333333 C12.9365113,5.33333333 11.7785455,5.50662541 10.6668983,5.56905499 L10.6666667,37.6034278 L10.6666667,37.6034278 Z" id="Shape"/><path d="M42.6666667,43.8167561 L43.8471279,43.8167561 C45.5896016,43.8167561 46.838492,43.8167561 46.838492,41.8861467 L46.838492,26.0778649 C46.838492,23.5137708 45.9047048,23.1569679 43.5981023,21.9969734 L43.5981023,21.061494 C46.5257403,20.2382721 50.0203289,19.1377081 50.2646514,18.9616178 C50.704385,18.7282983 51.0759246,18.6666667 51.3886763,18.6666667 C51.6969601,18.6666667 51.8260583,19.0188472 51.8260583,19.4876874 L51.8260583,41.8861467 C51.8260583,43.8167561 53.1969924,43.8167561 54.9418176,43.8167561 L56,43.8167561 L56,45.3333333 C53.878697,45.3333333 51.6967249,45.2168937 49.4580813,45.2168937 C47.2147346,45.2168937 44.9690364,45.274123 42.6669018,45.3333333 L42.6669018,43.8167561 L42.6666667,43.8167561 L42.6666667,43.8167561 Z M47.9988704,8 L47.9988704,8 C46.5820016,8 45.3333333,6.69558974 45.3333333,5.28205128 C45.3333333,3.92 46.6395061,2.66666667 47.9988704,2.66666667 C49.4097835,2.66666667 50.6666667,3.81353846 50.6666667,5.28205128 C50.6666667,6.75076923 49.4654396,8 47.9988704,8 L47.9988704,8 Z" id="Shape"/><path d="M62.5230726,26.4256431 C62.5230726,24.2685376 61.8768843,23.6874398 59.136702,22.5780713 L59.136702,21.471124 C61.6478193,20.6545054 64.0401049,19.8951162 66.8462068,18.6668868 C67.0205961,18.6668868 67.1923398,18.7857477 67.1923398,19.2501857 L67.1923398,23.0447104 C70.5282235,20.6545054 73.3920877,18.6666667 77.3117677,18.6666667 C82.2722715,18.6666667 84.0247624,22.2851011 84.0247624,26.8348329 L84.0247624,41.8863668 C84.0247624,43.8167561 85.3100841,43.8167561 86.9481527,43.8167561 L88,43.8167561 L88,45.3333333 C85.9494379,45.3333333 83.9059308,45.2168937 81.8070865,45.2168937 C79.7014077,45.2168937 77.595729,45.274123 75.4949005,45.3333333 L75.4949005,43.8167561 L76.5443226,43.8167561 C78.1843754,43.8167561 79.3466766,43.8167561 79.3466766,41.8863668 L79.3466766,26.7798046 C79.3466766,23.4494979 77.3117677,21.818462 73.9758839,21.818462 C72.1087503,21.818462 69.1278182,23.3352593 67.1921193,24.620498 L67.1921193,41.8859265 C67.1921193,43.816536 68.4838345,43.816536 70.1223441,43.816536 L71.1717662,43.816536 L71.1717662,45.3331132 C69.1278182,45.3331132 67.0796812,45.2164534 64.9766481,45.2164534 C62.8753786,45.2164534 60.7679361,45.2739029 58.6666667,45.3331132 L58.6666667,43.816536 L59.7204982,43.816536 C61.3563621,43.816536 62.5226317,43.816536 62.5226317,41.8859265 L62.5226317,26.4256431 L62.5230726,26.4256431 L62.5230726,26.4256431 Z" id="Shape"/><path d="M93.1087094,29.9175192 C92.9760063,30.4780691 92.9760063,31.4085678 93.1087094,33.523231 C93.4846615,39.4241262 97.3884457,44.2702685 102.486799,44.2702685 C106.000662,44.2702685 108.751061,42.4064578 111.109131,40.1089301 L112,40.9810529 C109.061986,44.7696292 105.424813,48 100.193997,48 C90.0425686,48 88,38.4277494 88,34.4541986 C88,22.2723785 96.4246019,18.6666667 100.889785,18.6666667 C106.06304,18.6666667 111.619472,21.8342072 111.679682,28.4217818 C111.679682,28.7992327 111.679682,29.1673061 111.619472,29.544757 L111.041455,29.9175192 L93.1087094,29.9175192 L93.1087094,29.9175192 Z M104.82543,26.6666667 L104.82543,26.6666667 C106.471856,26.6666667 106.666667,26.0733288 106.666667,25.5281459 C106.666667,23.2027775 104.621153,21.3333333 100.921739,21.3333333 C96.8984717,21.3333333 94.1255309,23.3816388 93.3333333,26.6666667 L104.82543,26.6666667 L104.82543,26.6666667 Z" id="Shape"/><path d="M112,43.8167686 L113.478957,43.8167686 C115.007075,43.8167686 116.10204,43.8167686 116.10204,41.8861751 L116.10204,25.4945096 C116.10204,23.6873984 114.080041,23.3352208 113.255874,22.8685855 L113.255874,21.996946 C117.252776,20.1854325 119.444152,18.6666667 119.941957,18.6666667 C120.266254,18.6666667 120.427369,18.8427555 120.427369,19.4282507 L120.427369,24.6778978 L120.543248,24.6778978 C121.908391,22.4041513 124.211722,18.6666667 127.547637,18.6666667 C128.916912,18.6666667 130.666667,19.6571661 130.666667,21.7592261 C130.666667,23.3352208 129.629744,24.7395289 128.097289,24.7395289 C126.393184,24.7395289 126.393184,23.3352208 124.480454,23.3352208 C123.548877,23.3352208 120.485618,24.6778978 120.485618,28.1798637 L120.485618,41.8861751 C120.485618,43.8165485 121.578105,43.8165485 123.112832,43.8165485 L126.176091,43.8165485 L126.176091,45.3333333 C123.164472,45.2736833 120.873741,45.2166745 118.514846,45.2166745 C116.271831,45.2166745 113.970565,45.2739034 112.000207,45.3333333 L112.000207,43.8167686 L112,43.8167686 L112,43.8167686 Z" id="Shape"/><path d="M134.437445,38.427357 C135.23441,42.5300522 137.680036,46.0117167 142.150753,46.0117167 C145.753375,46.0117167 147.101819,43.7751616 147.101819,41.599561 C147.101819,34.2662862 133.762877,36.6270943 133.762877,26.6235511 C133.762877,23.1421211 136.520038,18.6666667 143.249783,18.6666667 C145.206054,18.6666667 147.835968,19.229322 150.221551,20.474197 L150.655945,26.8066485 L149.245148,26.8066485 C148.635243,22.8959594 146.494684,20.6572944 142.573137,20.6572944 C140.125201,20.6572944 137.801971,22.0876112 137.801971,24.7576453 C137.801971,32.0346545 152,29.7910662 152,39.5461034 C152,43.6464542 148.755099,48 141.471566,48 C139.02363,48 136.148229,47.1302286 134.00767,45.8900424 L133.333333,38.7422095 L134.437445,38.427357 L134.437445,38.427357 Z" id="Shape"/><path d="M205.272792,14.8744149 L203.784914,14.8744149 C202.650832,7.59251775 197.699491,4.66331589 191.021933,4.66331589 C184.157575,4.66331589 174.196378,9.45503912 174.196378,24.3972572 C174.196378,36.9831943 182.79123,46.0078139 191.973941,46.0078139 C197.877064,46.0078139 202.77214,41.7749175 203.964963,35.235539 L205.333333,35.6066808 L203.964963,44.6970724 C201.45981,46.3202308 194.71946,48 190.778643,48 C176.824864,48 168,38.5971916 168,24.5875261 C168,11.8230651 178.913205,2.66666667 190.60287,2.66666667 C195.432903,2.66666667 200.084912,4.29217403 204.678406,5.97405738 L205.272792,14.8744149 L205.272792,14.8744149 Z" id="Shape"/><path d="M208.00047,43.7911168 L209.181119,43.7911168 C210.928573,43.7911168 212.179778,43.7911168 212.179778,41.8278683 L212.179778,8.78571017 C212.179778,4.9268112 211.243726,4.80795533 208.872786,4.15659825 L208.872786,3.20754189 C211.365789,2.4377766 213.983443,1.36762603 215.29368,0.653819251 C215.973141,0.300161457 216.476446,0 216.659893,0 C217.041135,0 217.16555,0.358358309 217.16555,0.834900995 L217.16555,41.8278683 C217.16555,43.7911168 218.534349,43.7911168 220.281803,43.7911168 L221.333333,43.7911168 L221.333333,45.3333333 C219.223453,45.3333333 217.041135,45.2147013 214.794845,45.2147013 C212.553729,45.2147013 210.309791,45.273122 208,45.3333333 L208,43.7911168 L208.00047,43.7911168 L208.00047,43.7911168 Z" id="Shape"/><path d="M246.647891,41.2452648 C246.647891,42.2997532 247.295037,42.3569905 248.299229,42.3569905 C249.010866,42.3569905 249.894778,42.2997532 250.666667,42.2997532 L250.666667,43.528155 C248.120929,43.7593059 243.271576,44.9855063 242.146658,45.3333333 L241.849863,45.1569982 L241.849863,40.435136 C238.306405,43.2923811 235.581475,45.3333333 231.379491,45.3333333 C228.186384,45.3333333 224.875006,43.2923811 224.875006,38.3941838 L224.875006,23.4508295 C224.875006,21.9340394 224.640471,20.4742666 221.333333,20.183897 L221.333333,19.0743728 C223.464675,19.0171354 228.186607,18.6668868 228.958496,18.6668868 C229.614791,18.6668868 229.614791,19.0743728 229.614791,20.3578106 L229.614791,35.4088151 C229.614791,37.1635805 229.614791,42.1804353 234.75603,42.1804353 C236.766645,42.1804353 239.426637,40.6636452 241.908329,38.627316 L241.908329,22.9222645 C241.908329,21.7599058 239.071823,21.1192876 236.947622,20.5334852 L236.947622,19.4833998 C242.263144,19.1311699 245.581217,18.6666667 246.168334,18.6666667 C246.647668,18.6666667 246.647668,19.0739325 246.647668,19.7189535 L246.647668,41.2452648 L246.647891,41.2452648 L246.647891,41.2452648 Z" id="Shape"/><path d="M259.006299,23.3540339 C261.510814,21.2594673 264.894629,18.9166489 268.345137,18.9166489 C275.617454,18.9166489 280,25.1461889 280,31.8566586 C280,39.9273995 273.985853,48 265.017372,48 C260.382009,48 257.938983,46.519322 256.307147,45.8449976 L254.429588,47.2582663 L253.11726,46.5844068 C253.673031,42.9489588 253.992067,39.3739467 253.992067,35.6176271 L253.992067,9.12348668 C253.992067,5.11635835 253.046074,4.99292978 250.666667,4.31651332 L250.666667,3.33094431 C253.180878,2.53156416 255.805771,1.42024213 257.123302,0.67874092 C257.813876,0.311476998 258.31265,0 258.506815,0 C258.880482,0 259.00559,0.372145278 259.00559,0.867021792 L259.00559,23.3538015 L259.006299,23.3538015 L259.006299,23.3540339 Z M258.666903,39.0838506 L258.666903,39.0838506 C258.666903,41.4118175 260.923323,45.3333333 265.128802,45.3333333 C271.844071,45.3333333 274.666667,38.9014008 274.666667,33.4512329 C274.666667,26.8414695 269.526084,21.3333333 264.629164,21.3333333 C262.30147,21.3333333 260.359514,22.8044791 258.666667,24.2153472 L258.666667,39.0838506 L258.666903,39.0838506 L258.666903,39.0838506 Z" id="Shape"/></g></g></g></g></svg>