<?xml version="1.0" ?><!DOCTYPE svg  PUBLIC '-//W3C//DTD SVG 1.1//EN'  'http://www.w3.org/Graphics/SVG/1.1/DTD/svg11.dtd'><svg height="100%" style="fill-rule:evenodd;clip-rule:evenodd;stroke-linejoin:round;stroke-miterlimit:1.41421;" version="1.1" viewBox="0 0 194 194" width="100%" xml:space="preserve" xmlns="http://www.w3.org/2000/svg" xmlns:xlink="http://www.w3.org/1999/xlink"><g><path d="M179.954,155.456C185.27,155.456 189.581,151.145 189.581,145.829L189.581,48.283C189.581,42.966 185.27,38.656 179.954,38.656L13.321,38.656C8.004,38.656 3.693,42.966 3.693,48.283L3.693,145.829C3.693,151.145 8.004,155.456 13.321,155.456L179.954,155.456Z" style="fill:rgb(254,254,254);"/><path d="M179.954,154.856C182.447,154.856 184.704,153.845 186.338,152.212C187.971,150.579 188.982,148.321 188.982,145.829L188.982,48.283C188.982,45.79 187.971,43.533 186.338,41.899C184.704,40.266 182.447,39.255 179.954,39.255L13.321,39.255C10.828,39.255 8.571,40.266 6.937,41.899C5.303,43.533 4.293,45.79 4.293,48.283L4.293,145.829C4.293,148.321 5.303,150.579 6.937,152.212C8.57,153.845 10.828,154.856 13.321,154.856L179.954,154.856ZM179.954,156.055L13.321,156.055C10.497,156.055 7.94,154.91 6.089,153.059C4.239,151.209 3.094,148.652 3.094,145.829L3.094,48.283C3.094,45.459 4.239,42.902 6.089,41.052C7.94,39.201 10.497,38.056 13.321,38.056L179.954,38.056C182.778,38.056 185.335,39.201 187.185,41.052C189.036,42.902 190.181,45.459 190.181,48.283L190.181,145.829C190.181,148.652 189.036,151.209 187.185,153.059C185.335,154.91 182.778,156.055 179.954,156.055Z" style="fill-rule:nonzero;"/><path d="M158.373,46.702C163.538,47.158 169.54,45.715 173.793,48.449C178.048,50.88 181.01,55.362 180.782,60.528L150.169,60.603C149.656,60.812 149.333,61.591 148.726,62.047C144.472,67.289 140.217,72.606 135.812,77.696C136.344,72.074 136.59,66.282 137.35,60.66L112.035,60.603C111.864,65.655 111.579,70.631 111.275,75.417C110.136,69.947 105.654,63.946 99.957,62.35C97.298,61.515 94.791,60.907 91.981,60.755L48.226,60.907C48.226,60.983 48.074,60.983 48.074,60.907C47.998,56.045 50.353,51.639 54.607,48.981C56.43,47.917 58.404,46.946 60.608,46.794L158.373,46.702Z" style="fill:rgb(236,28,36);"/><path d="M26.196,66.985C20.955,63.642 15.561,60.148 10.32,56.502L26.12,45.942L26.196,46.019L26.196,66.985ZM11.953,56.596L25.133,65.161L25.133,47.766L11.953,56.596Z"/><path d="M180.782,99.421C180.782,99.497 180.707,99.497 180.782,99.573C174.629,92.888 169.084,85.52 163.691,78.303L163.766,77.999C169.312,72.226 174.477,66.225 180.631,61.059L180.782,61.135L180.782,99.421Z" style="fill:rgb(236,28,36);"/><path d="M87.955,79.139C88.03,80.962 86.815,82.405 85.448,83.545C81.953,86.203 76.826,84.931 72.306,85.14L73.142,74.809C77.68,75.151 86.416,73.252 87.955,79.139Z" style="fill:rgb(236,28,36);"/><path d="M148.877,98.737C149.371,100.408 150.795,100.029 152.144,100.029L180.707,100.029C180.935,105.346 177.668,110.663 172.654,112.79C170.755,113.626 168.629,114.006 166.425,114.006L118.492,114.006L60.456,114.158C55.67,113.778 50.884,110.132 49.061,105.574C48.453,103.979 48.074,102.079 48.074,100.256L90.917,100.029C97.374,99.269 103.603,96.458 107.401,90.457C108.769,88.254 109.832,85.975 110.744,83.621C110.288,89.09 110.06,94.711 109.452,100.256C117.58,100.18 134.596,100.256 134.596,100.256C134.748,93.42 135.128,86.279 135.584,79.518L148.877,98.737Z" style="fill:rgb(236,28,36);"/><rect height="27.412" width="185.792" x="3.545" y="118.708"/><path d="M26.196,90.913C20.955,87.571 15.561,84.077 10.32,80.43L26.12,69.871L26.196,69.947L26.196,90.913ZM11.953,80.525L25.133,89.09L25.133,71.694L11.953,80.525Z"/><path d="M26.196,114.937C20.955,111.594 15.561,108.1 10.32,104.453L26.12,93.895L26.196,93.971L26.196,114.937ZM11.953,104.548L25.133,113.113L25.133,95.718L11.953,104.548Z"/><rect height="1.105" width="8.178" x="28.779" y="47.126"/><path d="M36.956,55.142L36.956,56.215L28.78,56.215L28.78,54.97L35.382,50.807L35.382,50.784L28.78,50.784L28.78,49.71L36.956,49.71L36.956,51.023L30.354,55.119L30.354,55.142L36.956,55.142Z"/><path d="M36.006,58.693L36.006,60.755C36.006,62.259 34.972,63.205 32.914,63.205C30.855,63.205 29.729,62.27 29.729,60.835L29.729,58.693L36.006,58.693ZM28.78,57.587L28.78,60.857C28.78,63.546 31.151,64.344 32.982,64.344C35.336,64.344 36.956,63.034 36.956,60.903L36.956,57.587L28.78,57.587Z"/><path d="M29.761,66.445L29.761,70.592L28.78,70.592L28.78,65.34L36.957,65.34L36.957,66.445L29.761,66.445Z"/><path d="M32.133,75.39L32.133,72.769L35.976,74.285L35.976,75.39L32.133,75.39ZM31.153,72.371L31.153,75.39L28.78,75.39L28.78,81.019L29.761,81.019L29.761,76.496L32.495,76.496L32.495,80.552L33.475,80.552L33.475,76.496L35.976,76.496L35.976,80.939L36.956,80.939L36.956,73.601L28.78,70.274L28.78,71.47L31.153,72.371Z"/><path d="M34.563,86.965C35.827,86.907 36.225,85.857 36.225,84.933C36.225,84.236 36.031,83.061 34.791,83.061C34.097,83.061 33.869,83.552 33.756,84.031L33.221,86.366C32.971,87.427 32.333,88.227 31.036,88.227C29.099,88.227 28.562,86.423 28.562,85.02C28.562,83.503 29.019,82.91 29.351,82.547C29.977,81.856 30.66,81.72 31.423,81.72L31.423,82.75C29.943,82.75 29.511,83.959 29.511,85.009C29.511,85.807 29.716,87.153 30.888,87.153C31.741,87.153 32.014,86.754 32.333,85.412L32.72,83.734C32.845,83.198 33.221,81.987 34.643,81.987C35.918,81.987 37.174,82.821 37.174,84.807C37.174,87.666 35.463,87.95 34.563,87.995L34.563,86.965Z"/><path d="M36.956,94.182L36.956,95.256L28.78,95.256L28.78,94.011L35.382,89.847L35.382,89.825L28.78,89.825L28.78,88.751L36.956,88.751L36.956,90.064L30.354,94.159L30.354,94.182L36.956,94.182Z"/><rect height="1.104" width="8.178" x="28.779" y="96.738"/><path d="M36.956,104.753L36.956,105.827L28.78,105.827L28.78,104.582L35.382,100.418L35.382,100.395L28.78,100.395L28.78,99.322L36.956,99.322L36.956,100.635L30.354,104.73L30.354,104.753L36.956,104.753Z"/><path d="M33.163,110.712L33.163,114.299L28.779,114.299L28.779,113.586L29.841,113.325C29.065,112.767 28.562,111.739 28.562,110.621C28.562,109.217 29.076,108.533 29.488,108.11C30.674,106.857 32.077,106.823 32.946,106.823C34.934,106.823 37.174,108.03 37.174,110.701C37.174,112.23 36.308,113.925 34.48,114.163L34.48,113.097C35.898,112.744 36.194,111.545 36.194,110.644C36.194,109.172 35.025,107.962 32.889,107.962C31.222,107.962 29.511,108.51 29.511,110.689C29.511,111.1 29.557,111.762 30.035,112.367C30.606,113.086 31.336,113.269 32.214,113.269L32.214,110.712L33.163,110.712Z"/><path d="M181.343,61.014C181.343,61.114 180.943,61.313 181.043,61.014L181.343,61.014Z" style="fill:rgb(254,254,254);"/><path d="M18.939,155.365L19.039,155.365L19.039,155.266L18.94,155.266L18.939,155.365Z" style="fill:rgb(254,254,254);"/></g></svg>