<?xml version="1.0" ?><!DOCTYPE svg  PUBLIC '-//W3C//DTD SVG 1.1//EN'  'http://www.w3.org/Graphics/SVG/1.1/DTD/svg11.dtd'><svg enable-background="new 0 0 64 64" height="64px" id="Layer_1" version="1.1" viewBox="0 0 64 64" width="64px" xml:space="preserve" xmlns="http://www.w3.org/2000/svg" xmlns:xlink="http://www.w3.org/1999/xlink"><g><g><g><circle cx="33.9" cy="27.4" fill="#EF9122" r="5.2"/></g></g><g><g><path d="M28.7,27.4c0-2.9,2.3-5.2,5.2-5.2c2.9,0,5.2,2.3,5.2,5.2c0,2.9-2.3,5.2-5.2,5.2" fill="#F26E21"/></g></g><g><g><path d="M30.3,23.7c2-2,5.3-2,7.3,0c2,2,2,5.3,0,7.3" fill="#F44500"/></g></g><g><g><path d="M3.8,22.5H1v9.8h2.8c1.5,0,2.6-0.4,3.5-1.1c1.1-0.9,1.8-2.3,1.8-3.8C9.1,24.5,7,22.5,3.8,22.5z M6.1,29.9     c-0.6,0.5-1.4,0.8-2.6,0.8H2.9v-6.5h0.5c1.2,0,2,0.2,2.6,0.8c0.7,0.6,1.1,1.5,1.1,2.4C7.2,28.3,6.8,29.3,6.1,29.9z" fill="#595A5B"/></g><g><rect fill="#595A5B" height="9.8" width="1.9" x="10" y="22.5"/></g><g><path d="M16.7,26.3c-1.2-0.4-1.5-0.7-1.5-1.2c0-0.6,0.6-1.1,1.4-1.1c0.6,0,1.1,0.2,1.6,0.8l1-1.3     c-0.8-0.7-1.8-1.1-2.9-1.1c-1.7,0-3.1,1.2-3.1,2.8c0,1.4,0.6,2,2.4,2.7c0.8,0.3,1.1,0.4,1.3,0.6c0.4,0.2,0.6,0.6,0.6,1     c0,0.8-0.6,1.4-1.5,1.4c-0.9,0-1.7-0.5-2.1-1.3l-1.2,1.2c0.9,1.3,2,1.9,3.4,1.9c2,0,3.4-1.3,3.4-3.2     C19.5,27.8,18.9,27.1,16.7,26.3z" fill="#595A5B"/></g><g><path d="M20.1,27.4c0,2.9,2.3,5.1,5.2,5.1c0.8,0,1.5-0.2,2.4-0.6v-2.3c-0.8,0.8-1.5,1.1-2.3,1.1     c-1.9,0-3.3-1.4-3.3-3.4c0-1.9,1.4-3.4,3.2-3.4c0.9,0,1.6,0.3,2.4,1.1v-2.3c-0.8-0.4-1.5-0.6-2.4-0.6     C22.5,22.3,20.1,24.6,20.1,27.4z" fill="#3B3D3F"/></g><g><polygon points="43.4,29.1 40.8,22.5 38.7,22.5 42.8,32.6 43.9,32.6 48.2,22.5 46.1,22.5    "/></g><g><polygon points="49,32.3 54.5,32.3 54.5,30.7 51,30.7 51,28 54.4,28 54.4,26.3 51,26.3 51,24.2 54.5,24.2 54.5,22.5 49,22.5         "/></g><g><path d="M59.9,28.2c1.5-0.3,2.3-1.3,2.3-2.8c0-1.8-1.3-2.9-3.5-2.9h-2.9v9.8h1.9v-3.9H58l2.7,3.9H63L59.9,28.2z      M58.3,27h-0.6v-3h0.6c1.2,0,1.9,0.5,1.9,1.5C60.2,26.5,59.5,27,58.3,27z" fill="#595A5B"/></g></g><g><g><path d="M3.8,22.5H1v9.8h2.8c1.5,0,2.6-0.4,3.5-1.1c1.1-0.9,1.8-2.3,1.8-3.8C9.1,24.5,7,22.5,3.8,22.5z M6.1,29.9     c-0.6,0.5-1.4,0.8-2.6,0.8H2.9v-6.5h0.5c1.2,0,2,0.2,2.6,0.8c0.7,0.6,1.1,1.5,1.1,2.4C7.2,28.3,6.8,29.3,6.1,29.9z" fill="#595A5B"/></g><g><rect fill="#595A5B" height="9.8" width="1.9" x="10" y="22.5"/></g><g><path d="M16.7,26.3c-1.2-0.4-1.5-0.7-1.5-1.2c0-0.6,0.6-1.1,1.4-1.1c0.6,0,1.1,0.2,1.6,0.8l1-1.3     c-0.8-0.7-1.8-1.1-2.9-1.1c-1.7,0-3.1,1.2-3.1,2.8c0,1.4,0.6,2,2.4,2.7c0.8,0.3,1.1,0.4,1.3,0.6c0.4,0.2,0.6,0.6,0.6,1     c0,0.8-0.6,1.4-1.5,1.4c-0.9,0-1.7-0.5-2.1-1.3l-1.2,1.2c0.9,1.3,2,1.9,3.4,1.9c2,0,3.4-1.3,3.4-3.2     C19.5,27.8,18.9,27.1,16.7,26.3z" fill="#595A5B"/></g><g><path d="M25.4,32.5c0.8,0,1.5-0.2,2.4-0.6v-2.3c-0.8,0.8-1.5,1.1-2.3,1.1c-1.9,0-3.3-1.4-3.3-3.4     c0-1,0.4-1.8,1-2.5l-1.3-1.3c-1,0.9-1.7,2.3-1.7,3.8C20.1,30.3,22.4,32.5,25.4,32.5z" fill="#595A5B"/></g><g><path d="M59.9,28.2c1.5-0.3,2.3-1.3,2.3-2.8c0-1.8-1.3-2.9-3.5-2.9h-2.9v9.8h1.9v-3.9H58l2.7,3.9H63L59.9,28.2z M58.3,27h-0.6v-3     h0.6c1.2,0,1.9,0.5,1.9,1.5C60.2,26.5,59.5,27,58.3,27z"/></g></g><g><g><g><path d="M15.1,41.4v-5.5l3.8,3.9v-3.6h0.8v5.5l-3.8-3.9v3.6H15.1z" fill="#F26E21"/></g></g><g><g><path d="M23.7,37h-2.1v1.2h2V39h-2v1.7h2.1v0.7h-2.9v-5.2h2.9V37z" fill="#F26E21"/></g></g><g><g><path d="M26.2,37v4.4h-0.8V37h-1.2v-0.7h3.2V37H26.2z" fill="#F26E21"/></g></g><g><g><path d="M28.6,36.3l1.3,3.5l1.4-3.7l1.3,3.7l1.4-3.5H35l-2.3,5.5l-1.3-3.7l-1.4,3.7l-2.2-5.5H28.6z" fill="#F26E21"/></g></g><g><g><path d="M35.1,38.8c0-0.7,0.3-1.4,0.8-1.9c0.5-0.5,1.2-0.8,1.9-0.8c0.7,0,1.4,0.3,1.9,0.8      c0.5,0.5,0.8,1.2,0.8,1.9c0,0.7-0.3,1.4-0.8,1.9c-0.5,0.5-1.2,0.8-1.9,0.8c-0.7,0-1.3-0.2-1.8-0.7      C35.4,40.3,35.1,39.7,35.1,38.8z M35.9,38.8c0,0.6,0.2,1,0.6,1.4c0.4,0.4,0.8,0.6,1.3,0.6c0.5,0,1-0.2,1.4-0.6      c0.4-0.4,0.6-0.8,0.6-1.4c0-0.6-0.2-1-0.6-1.4c-0.4-0.4-0.8-0.6-1.4-0.6c-0.5,0-1,0.2-1.4,0.6C36.1,37.8,35.9,38.3,35.9,38.8z" fill="#F26E21"/></g></g><g><g><path d="M43.3,39.2l1.6,2.2h-1l-1.5-2.1h-0.1v2.1h-0.8v-5.2h0.9c0.7,0,1.2,0.1,1.5,0.4c0.3,0.3,0.5,0.7,0.5,1.1      c0,0.4-0.1,0.7-0.3,0.9C43.9,39,43.6,39.2,43.3,39.2z M42.3,38.6h0.2c0.7,0,1.1-0.3,1.1-0.8c0-0.5-0.4-0.8-1.1-0.8h-0.3V38.6z" fill="#F26E21"/></g></g><g><g><path d="M46.4,38.3l2-2.1h1l-2.3,2.3l2.3,2.8h-1l-1.9-2.3l-0.2,0.2v2.1h-0.8v-5.2h0.8V38.3z" fill="#F26E21"/></g></g></g><g><polygon fill="#3B3D3F" points="52.8,30.7 51,30.7 51,28.9 49,26.9 49,32.3 54.4,32.3   "/></g><g><polygon fill="#3B3D3F" points="45.6,23.5 43.4,29.1 40.8,22.5 38.7,22.5 42.8,32.6 43.9,32.6 47.1,25   "/></g></g></svg>